# xmcd
#
# Track frame offsets:
#	150
#	22003
#	32817
#	47337
#
# Disc length: 853 seconds
#
# Revision: 1
# Processed by: cddbd v1.5.1PL0 Copyright (c) Steve Scherf et al.
# Submitted via: audiograbber 1.82.01
#
DISCID=28035304
DTITLE=Tomas Andersson Wij - Blues från Sverige cds
DYEAR=2003
DGENRE=
TTITLE0=Blues från Sverige
TTITLE1=En vän till mig
TTITLE2=Ligga lågt
TTITLE3=och en som vandrar
EXTD=
EXTT0=
EXTT1=
EXTT2=
EXTT3=
PLAYORDER=
